<svg width="64" height="64" xmlns="http://www.w3.org/2000/svg">

 <g>
  <title>background</title>
  <rect fill="none" id="canvas_background" height="402" width="582" y="-1" x="-1"/>
 </g>
 <g>
  <title>Layer 1</title>
  <path fill="#cccccc" id="svg_5" d="m57,32c-1,-0.4 -1.5,-1.3 -1.5,-2.2c0,-0.4 0.1,-0.7 0.2,-1c0.8,-1.7 -0.5,-3.4 -2.1,-3.4c-0.3,0 -0.6,0.1 -1,0.2c-0.3,0.1 -0.7,0.2 -1,0.2c-0.9,0 -1.9,-0.6 -2.2,-1.6c-0.4,-1 -1.3,-1.6 -2.2,-1.6c-0.9,0 -1.8,0.5 -2.2,1.5c-0.4,1 -1.2,1.5 -2.2,1.5c-0.3,0 -0.7,-0.1 -1,-0.2c-1.6,-0.8 -3.4,0.5 -3.4,2.1c0,0.3 0.1,0.6 0.2,1c0.2,0.3 0.2,0.7 0.2,1c0,0.9 -0.6,1.9 -1.6,2.2c-1,0.4 -1.6,1.3 -1.6,2.2c0,0.9 0.5,1.8 1.5,2.2c1,0.4 1.5,1.2 1.5,2.2c0,0.3 -0.1,0.7 -0.2,1c-0.8,1.7 0.5,3.4 2.1,3.4l0.2,0c0.3,0 0.5,-0.1 0.8,-0.2c0.3,-0.2 0.7,-0.2 1,-0.2c1,0 1.9,0.6 2.2,1.6c0.2,0.6 0.7,1.1 1.2,1.3c0.3,0.2 0.7,0.2 1,0.2c0.4,0 0.8,-0.1 1.1,-0.3c0.5,-0.2 0.8,-0.7 1,-1.2c0.4,-1 1.3,-1.5 2.2,-1.5c0.4,0 0.7,0.1 1,0.2c0.4,0.2 0.7,0.2 1,0.2c1.3,0 2.3,-1.1 2.3,-2.3c0,-0.3 -0.1,-0.7 -0.2,-1c-0.1,-0.3 -0.2,-0.7 -0.2,-1c0,-1 0.6,-1.9 1.6,-2.2c2.3,-0.7 2.3,-3.6 0.3,-4.3zm-9.9,7.7c-3.1,0 -5.7,-2.5 -5.7,-5.7c0,-3.1 2.5,-5.7 5.7,-5.7c3.1,0 5.7,2.5 5.7,5.7c0,3.2 -2.6,5.7 -5.7,5.7z" class="st1"/>
  <path fill="#cccccc" id="svg_7" d="m46,45.2l-2.2,3.9l-3,5.4l-1.9,-2.4l-3,-0.4l1.4,-2.6l3.6,-6.4c0.3,0 0.5,-0.1 0.8,-0.2c0.3,-0.2 0.7,-0.2 1,-0.2c1,0 1.9,0.6 2.2,1.6c0.1,0.6 0.6,1.1 1.1,1.3z" class="st2"/>
  <path fill="#cccccc" id="svg_9" d="m58.4,51.7l-3,0.4l-1.9,2.4l-3,-5.4l-2.3,-4c0.5,-0.2 0.8,-0.7 1,-1.2c0.4,-1 1.3,-1.5 2.2,-1.5c0.4,0 0.7,0.1 1,0.2c0.4,0.2 0.7,0.2 1,0.2l3.6,6.3l1.4,2.6z" class="st2"/>
  <path fill="#ececec" id="svg_12" d="m62.9,8.3l-61.8,0c-0.6,0 -1.1,0.5 -1.1,1.1l0,39.7c0,0.6 0.5,1.1 1.1,1.1l34.2,0l-0.5,0.9c-0.2,0.3 -0.2,0.7 0,1c0.2,0.3 0.5,0.6 0.8,0.6l2.6,0.4l1.7,2.1c0.2,0.3 0.5,0.4 0.9,0.4c0,0 0.1,0 0.1,0c0.4,0 0.7,-0.2 0.9,-0.6l2.7,-4.8l5.3,0l2.7,4.8c0.2,0.3 0.5,0.5 0.9,0.6c0,0 0.1,0 0.1,0c0.3,0 0.6,-0.1 0.9,-0.4l1.7,-2.1l2.6,-0.4c0.4,0 0.7,-0.3 0.8,-0.6c0.2,-0.3 0.2,-0.7 0,-1l-0.5,-0.9l4,0c0.6,0 1.1,-0.5 1.1,-1.1l0,-39.7c-0.1,-0.6 -0.6,-1.1 -1.2,-1.1zm-25.3,26.9c-0.7,-0.3 -0.8,-1 -0.8,-1.2c0,-0.4 0.2,-1 0.8,-1.2c1.4,-0.5 2.3,-1.8 2.3,-3.2c0,-0.5 -0.1,-1.1 -0.3,-1.4c-0.1,-0.2 -0.1,-0.4 -0.1,-0.5c0,-0.4 0.2,-0.8 0.6,-1c0.2,-0.1 0.6,-0.3 1.2,0c0.5,0.2 1,0.3 1.5,0.3c1.5,0 2.7,-0.9 3.2,-2.3c0.3,-0.7 1,-0.8 1.2,-0.8c0.4,0 1,0.2 1.2,0.8c0.7,1.9 2.7,2.8 4.7,2c0.2,-0.1 0.4,-0.1 0.5,-0.1c0.4,0 0.8,0.2 1,0.6c0.1,0.2 0.3,0.6 0.1,1.1c-0.3,0.4 -0.4,1 -0.4,1.6c0,1.4 0.9,2.8 2.3,3.2c0.7,0.3 0.8,1 0.8,1.2c0,0.2 -0.1,0.9 -0.8,1.2c-1.4,0.5 -2.3,1.8 -2.3,3.3c0,0.5 0.1,0.9 0.3,1.5c0.1,0.1 0.1,0.3 0.1,0.5c0,0.9 -1.1,1.4 -1.8,1.1c-1.8,-0.9 -4.1,0.1 -4.8,1.9c-0.1,0.3 -0.3,0.5 -0.5,0.6c-0.4,0.2 -0.8,0.2 -1.1,0c-0.3,-0.2 -0.5,-0.4 -0.6,-0.7c-0.1,-0.3 -0.3,-0.6 -0.4,-0.8c-0.1,-0.1 -0.1,-0.2 -0.2,-0.2c-0.1,-0.2 -0.3,-0.3 -0.5,-0.5c-0.1,-0.1 -0.2,-0.2 -0.4,-0.3c-0.2,-0.1 -0.4,-0.2 -0.5,-0.3c-0.1,0 -0.3,-0.1 -0.4,-0.1c-0.2,-0.1 -0.4,-0.1 -0.6,-0.1c-0.1,0 -0.1,0 -0.2,0c-0.5,0 -1,0.1 -1.5,0.3c-0.1,0 -0.2,0.1 -0.3,0.1c-0.1,0 -0.1,0 -0.2,0c-0.4,0 -0.8,-0.2 -1,-0.6c-0.1,-0.2 -0.3,-0.6 0,-1.2c0.2,-0.5 0.3,-1 0.3,-1.5c-0.1,-1.6 -1,-2.8 -2.4,-3.3zm3,17.4l-0.9,-1.1c-0.2,-0.2 -0.4,-0.4 -0.7,-0.4l-1.4,-0.2l4,-7.1c0.2,-0.1 0.4,-0.1 0.6,-0.2c0.7,-0.3 1.5,0 1.7,0.7c0.2,0.5 0.4,0.9 0.8,1.2c0,0 0,0 0,0.1l-4.1,7zm5.1,-4.5l0.9,-1.5c0.2,0 0.3,0.1 0.5,0.1c0.2,0 0.4,0 0.6,-0.1l0.9,1.6l-2.9,0l0,-0.1zm9.5,3c-0.3,0 -0.5,0.2 -0.7,0.4l-0.9,1.1l-4,-7.2c0,0 0,0 0,0c0.3,-0.3 0.5,-0.7 0.6,-1.1c0.2,-0.7 1,-1 1.7,-0.7c0.3,0.1 0.5,0.2 0.8,0.3c0,0 0,0 0,0l3.9,6.9l-1.4,0.3zm6.6,-3l-4.1,0l-2.6,-4.5c1.1,-0.6 1.8,-1.7 1.8,-3c0,-0.5 -0.1,-1 -0.3,-1.4c-0.1,-0.2 -0.1,-0.4 -0.1,-0.6c0,-0.4 0.2,-1 0.8,-1.2c1.4,-0.5 2.3,-1.8 2.3,-3.2c0,-1.5 -0.9,-2.7 -2.3,-3.2l0,0c-0.5,-0.2 -0.8,-0.6 -0.8,-1.2c0,-0.1 0,-0.3 0.1,-0.5c0.5,-1.1 0.5,-2.3 -0.2,-3.3c-0.9,-1.5 -3,-2 -4.3,-1.3c-0.6,0.3 -1.5,0 -1.7,-0.7c-0.5,-1.4 -1.8,-2.3 -3.3,-2.3c-1.5,0 -2.7,0.9 -3.2,2.2c-0.2,0.5 -0.6,0.8 -1.2,0.8c-0.1,0 -0.3,0 -0.5,-0.1c-1.1,-0.5 -2.3,-0.5 -3.3,0.1c-1,0.6 -1.6,1.8 -1.6,2.9c0,0.5 0.1,1 0.3,1.5c0.1,0.1 0.1,0.3 0.1,0.5c0,0.5 -0.3,1 -0.8,1.2c-1.4,0.5 -2.3,1.8 -2.3,3.3c0,1.5 0.9,2.7 2.3,3.2c0.5,0.2 0.8,0.6 0.8,1.2c0,0.2 0,0.4 -0.1,0.5c-0.5,1.1 -0.5,2.3 0.2,3.3c0.3,0.6 0.8,1 1.4,1.3l-2.6,4.6l-34.4,0l0,-37.7l59.6,0l0,37.6z" class="st3"/>
  <path fill="#ececec" id="svg_14" d="m47.1,40.8c3.7,0 6.8,-3 6.8,-6.8c0,-3.7 -3,-6.8 -6.8,-6.8c-3.7,0 -6.8,3 -6.8,6.8c0,3.8 3.1,6.8 6.8,6.8zm0,-11.3c2.5,0 4.6,2 4.6,4.6c0,2.5 -2,4.6 -4.6,4.6c-2.5,0 -4.6,-2 -4.6,-4.6c0,-2.5 2.1,-4.6 4.6,-4.6z" class="st3"/>
  <path fill="#cccccc" id="svg_16" d="m7.7,20.5l22.1,0c0.6,0 1.1,-0.5 1.1,-1.1c0,-0.6 -0.5,-1.1 -1.1,-1.1l-22.1,0c-0.6,0 -1.1,0.5 -1.1,1.1c0,0.6 0.5,1.1 1.1,1.1z" class="st3"/>
  <path fill="#cccccc" id="svg_18" d="m7.7,27.1l22.1,0c0.6,0 1.1,-0.5 1.1,-1.1c0,-0.6 -0.5,-1.1 -1.1,-1.1l-22.1,0c-0.6,0 -1.1,0.5 -1.1,1.1c0,0.6 0.5,1.1 1.1,1.1z" class="st3"/>
  <path fill="#cccccc" id="svg_20" d="m7.7,33.7l22.1,0c0.6,0 1.1,-0.5 1.1,-1.1s-0.5,-1.1 -1.1,-1.1l-22.1,0c-0.6,0 -1.1,0.5 -1.1,1.1s0.5,1.1 1.1,1.1z" class="st3"/>
  <path fill="#cccccc" id="svg_22" d="m7.7,40.3l22.1,0c0.6,0 1.1,-0.5 1.1,-1.1s-0.5,-1.1 -1.1,-1.1l-22.1,0c-0.6,0 -1.1,0.5 -1.1,1.1s0.5,1.1 1.1,1.1z" class="st3"/>
 </g>
</svg>