<svg width="512" height="512" xmlns="http://www.w3.org/2000/svg">

 <g>
  <title>background</title>
  <rect fill="none" id="canvas_background" height="402" width="582" y="-1" x="-1"/>
 </g>
 <g>
  <title>Layer 1</title>
  <path fill="#ececec" id="svg_4" d="m455.94,263.15l-193.32,0c-3.87,0 -7,-3.13 -7,-7l0,-107.59c0,-1.91 0.78,-3.73 2.16,-5.05l60.25,-57.72c1.3,-1.25 3.04,-1.95 4.84,-1.95l133.07,0c3.87,0 7,3.13 7,7l0,34.37c0,3.87 -3.13,7 -7,7s-7,-3.13 -7,-7l0,-27.38l-123.26,0l-56.06,53.71l0,97.6l179.32,0l0,-81.69c0,-3.87 3.13,-7 7,-7s7,3.13 7,7l0,88.69c0,3.88 -3.13,7.01 -7,7.01z" class="st1"/>
  <path fill="#cccccc" id="svg_6" d="m455.94,153.33c-0.45,0 -0.91,-0.04 -1.37,-0.13c-0.44,-0.09 -0.88,-0.23 -1.31,-0.4c-0.42,-0.18 -0.82,-0.39 -1.2,-0.65c-0.39,-0.25 -0.75,-0.54 -1.07,-0.87c-0.32,-0.32 -0.61,-0.68 -0.87,-1.06c-0.25,-0.38 -0.47,-0.79 -0.64,-1.21c-0.18,-0.42 -0.31,-0.86 -0.4,-1.31c-0.09,-0.45 -0.14,-0.91 -0.14,-1.37c0,-0.45 0.05,-0.91 0.14,-1.36c0.09,-0.45 0.22,-0.89 0.4,-1.31c0.17,-0.43 0.39,-0.83 0.64,-1.21c0.26,-0.38 0.55,-0.74 0.87,-1.07c0.32,-0.32 0.68,-0.61 1.07,-0.87c0.38,-0.25 0.78,-0.46 1.2,-0.64c0.43,-0.17 0.87,-0.31 1.31,-0.4c0.91,-0.18 1.84,-0.18 2.74,0c0.45,0.09 0.89,0.23 1.31,0.4c0.42,0.18 0.83,0.39 1.21,0.64c0.38,0.26 0.74,0.55 1.06,0.87c0.32,0.33 0.62,0.69 0.87,1.07s0.47,0.78 0.64,1.21c0.18,0.42 0.32,0.86 0.41,1.31c0.09,0.45 0.13,0.91 0.13,1.36c0,0.46 -0.04,0.92 -0.13,1.37c-0.09,0.45 -0.23,0.89 -0.41,1.31c-0.17,0.42 -0.39,0.83 -0.64,1.21s-0.55,0.74 -0.87,1.06c-0.32,0.33 -0.68,0.62 -1.06,0.87c-0.38,0.26 -0.79,0.47 -1.21,0.65c-0.42,0.17 -0.86,0.31 -1.31,0.4c-0.45,0.09 -0.91,0.13 -1.37,0.13z" class="st1"/>
  <path fill="#cccccc" id="svg_8" d="m411.59,228.2l-104.61,0c-3.87,0 -7,-3.13 -7,-7l0,-53.72c0,-1.91 0.78,-3.73 2.16,-5.05l33.71,-32.3c1.3,-1.25 3.04,-1.95 4.84,-1.95l70.9,0c3.87,0 7,3.13 7,7l0,86.02c0,3.87 -3.13,7 -7,7zm-97.61,-14l90.61,0l0,-72.02l-61.09,0l-29.53,28.29l0,43.73l0.01,0z" class="st0"/>
  <path fill="#cccccc" id="svg_10" d="m258.5,428.17c-1.84,0 -3.65,-0.75 -4.95,-2.05c-0.32,-0.33 -0.61,-0.68 -0.87,-1.07c-0.25,-0.38 -0.47,-0.78 -0.64,-1.21c-0.18,-0.42 -0.31,-0.86 -0.4,-1.31s-0.14,-0.91 -0.14,-1.36c0,-0.46 0.05,-0.92 0.14,-1.37s0.22,-0.89 0.4,-1.31c0.17,-0.42 0.39,-0.83 0.64,-1.21c0.26,-0.38 0.55,-0.74 0.87,-1.06c1.63,-1.63 4.04,-2.37 6.32,-1.92c0.44,0.09 0.88,0.23 1.31,0.4c0.42,0.18 0.83,0.39 1.21,0.65c0.38,0.25 0.74,0.54 1.06,0.87c0.32,0.32 0.62,0.68 0.87,1.06s0.47,0.79 0.64,1.21c0.18,0.42 0.31,0.86 0.4,1.31c0.09,0.45 0.14,0.91 0.14,1.37c0,1.84 -0.75,3.64 -2.05,4.95c-0.32,0.32 -0.68,0.61 -1.06,0.87c-0.38,0.25 -0.79,0.46 -1.21,0.64c-0.43,0.17 -0.87,0.31 -1.31,0.4c-0.45,0.09 -0.91,0.14 -1.37,0.14z" class="st1"/>
  <path fill="#ececec" id="svg_12" d="m454.22,428.17l-172.28,0c-3.87,0 -7,-3.13 -7,-7c0,-3.87 3.13,-7 7,-7l172.29,0c16.69,0 30.28,-13.58 30.28,-30.28l0,-4.18c0,-16.69 -13.58,-30.28 -30.28,-30.28l-273.2,0c-16.69,0 -30.28,13.58 -30.28,30.28l0,4.18c0,16.69 13.58,30.28 30.28,30.28l57.12,0c3.87,0 7,3.13 7,7c0,3.87 -3.13,7 -7,7l-57.12,0c-24.41,0 -44.28,-19.86 -44.28,-44.28l0,-4.18c0,-24.41 19.86,-44.28 44.28,-44.28l273.19,0c24.41,0 44.28,19.86 44.28,44.28l0,4.18c0,24.41 -19.86,44.28 -44.28,44.28z" class="st1"/>
  <path fill="#ececec" id="svg_14" d="m455.94,314.8l-291.11,0c-3.87,0 -7,-3.13 -7,-7l0,-23.92c0,-1.88 0.75,-3.68 2.09,-4.99l28.23,-27.73c1.31,-1.29 3.07,-2.01 4.91,-2.01l262.88,0c3.87,0 7,3.13 7,7l0,51.65c0,3.87 -3.13,7 -7,7zm-284.11,-14l277.11,0l0,-37.65l-253.02,0l-24.09,23.67l0,13.98z" class="st1"/>
  <path fill="#ececec" id="svg_16" d="m164.83,290.88c-1.81,0 -3.62,-0.7 -4.99,-2.09c-2.71,-2.76 -2.67,-7.19 0.09,-9.9l23.13,-22.72l-102.6,-100.23c-1.97,3.38 -4.48,6.44 -7.43,9.03l70.84,83.42c2.5,2.95 2.14,7.36 -0.8,9.87c-2.95,2.5 -7.37,2.14 -9.87,-0.8l-75.84,-89.3c-1.38,-1.63 -1.94,-3.79 -1.53,-5.89c0.41,-2.09 1.76,-3.88 3.65,-4.86c5.89,-3.05 10.16,-8.73 11.41,-15.21c0.49,-2.53 2.33,-4.58 4.79,-5.35c2.46,-0.77 5.14,-0.12 6.98,1.67l115.29,112.63c1.35,1.31 2.11,3.12 2.11,5s-0.75,3.68 -2.09,5l-28.23,27.73c-1.37,1.33 -3.14,2 -4.91,2z" class="st1"/>
  <path fill="#ececec" id="svg_18" d="m62.91,292.27l-22.07,0c-3.77,0 -6.87,-2.99 -7,-6.76l-4.21,-121.39c-0.08,-2.46 1.13,-4.79 3.2,-6.13c2.07,-1.34 4.69,-1.48 6.9,-0.39c3.01,1.49 6.26,2.25 9.67,2.25c3.41,0 6.67,-0.76 9.68,-2.25c2.16,-1.07 4.73,-0.96 6.78,0.31c2.06,1.27 3.31,3.5 3.33,5.92l0.72,121.39c0.01,1.86 -0.72,3.65 -2.04,4.98c-1.31,1.33 -3.1,2.07 -4.96,2.07zm-15.31,-14l8.27,0l-0.62,-104.88c-3.69,0.6 -7.58,0.62 -11.29,0.06l3.64,104.82z" class="st1"/>
  <path fill="#cccccc" id="svg_20" d="m100.66,360.94l-53.76,0c-2.13,0 -4.14,-0.97 -5.47,-2.63l-9.2,-11.51c-0.99,-1.24 -1.53,-2.78 -1.53,-4.37l0,-57.15c0,-3.87 3.13,-7 7,-7l33.84,0c3.87,0 7,3.13 7,7l0,37.04l10.6,0l19.69,-19.7c2,-2 5.01,-2.6 7.63,-1.52c2.62,1.08 4.32,3.64 4.32,6.47l0,33.61c0,1.89 -0.76,3.7 -2.12,5.02l-13.12,12.77c-1.3,1.26 -3.05,1.97 -4.88,1.97zm-50.39,-14l47.55,0l8.96,-8.72l0,-13.75l-9.79,9.8c-1.31,1.31 -3.09,2.05 -4.95,2.05l-20.5,0c-3.87,0 -7,-3.13 -7,-7l0,-37.04l-19.84,0l0,47.7l5.57,6.96z" class="st0"/>
  <path fill="#cccccc" id="svg_23" d="m187.89,404.08c-12.29,0 -22.28,-9.99 -22.28,-22.28s9.99,-22.28 22.28,-22.28c12.28,0 22.28,9.99 22.28,22.28s-10,22.28 -22.28,22.28zm0,-30.56c-4.57,0 -8.28,3.71 -8.28,8.28c0,4.57 3.71,8.28 8.28,8.28c4.56,0 8.28,-3.71 8.28,-8.28c0,-4.57 -3.71,-8.28 -8.28,-8.28z" class="st0"/>
  <path fill="#cccccc" id="svg_25" d="m252.76,404.08c-12.29,0 -22.28,-9.99 -22.28,-22.28s9.99,-22.28 22.28,-22.28s22.28,9.99 22.28,22.28s-10,22.28 -22.28,22.28zm0,-30.56c-4.57,0 -8.28,3.71 -8.28,8.28c0,4.57 3.71,8.28 8.28,8.28s8.28,-3.71 8.28,-8.28c0,-4.57 -3.72,-8.28 -8.28,-8.28z" class="st0"/>
  <path fill="#cccccc" id="svg_27" d="m317.63,404.08c-12.29,0 -22.28,-9.99 -22.28,-22.28s9.99,-22.28 22.28,-22.28c12.28,0 22.28,9.99 22.28,22.28s-10,22.28 -22.28,22.28zm0,-30.56c-4.57,0 -8.28,3.71 -8.28,8.28c0,4.57 3.71,8.28 8.28,8.28c4.56,0 8.28,-3.71 8.28,-8.28c0,-4.57 -3.72,-8.28 -8.28,-8.28z" class="st0"/>
  <path fill="#cccccc" id="svg_29" d="m382.5,404.08c-12.29,0 -22.28,-9.99 -22.28,-22.28s9.99,-22.28 22.28,-22.28s22.28,9.99 22.28,22.28s-10,22.28 -22.28,22.28zm0,-30.56c-4.57,0 -8.28,3.71 -8.28,8.28c0,4.57 3.71,8.28 8.28,8.28s8.28,-3.71 8.28,-8.28c0,-4.57 -3.72,-8.28 -8.28,-8.28z" class="st0"/>
  <g id="svg_30">
   <path fill="#cccccc" id="svg_31" d="m447.37,404.08c-12.29,0 -22.28,-9.99 -22.28,-22.28s9.99,-22.28 22.28,-22.28c12.28,0 22.28,9.99 22.28,22.28s-10,22.28 -22.28,22.28zm0,-30.56c-4.57,0 -8.28,3.71 -8.28,8.28c0,4.57 3.71,8.28 8.28,8.28c4.56,0 8.28,-3.71 8.28,-8.28c-0.01,-4.57 -3.72,-8.28 -8.28,-8.28z" class="st0"/>
  </g>
  <g id="svg_32">
   <path fill="#cccccc" id="svg_33" d="m49.4,116.04c-12.08,0 -21.9,9.83 -21.9,21.91c0,8.4 4.68,15.93 12.22,19.65c3.02,1.5 6.28,2.26 9.68,2.26c3.41,0 6.67,-0.76 9.68,-2.25c0.04,-0.02 0.09,-0.04 0.13,-0.06c0.09,-0.05 0.18,-0.1 0.27,-0.15c5.89,-3.05 10.16,-8.73 11.41,-15.21c0.29,-1.39 0.42,-2.79 0.42,-4.23c0.01,-12.09 -9.82,-21.92 -21.91,-21.92zm0,57.82c-5.58,0 -10.93,-1.25 -15.89,-3.71c-12.34,-6.08 -20.02,-18.42 -20.02,-32.2c0,-19.8 16.11,-35.91 35.9,-35.91c19.8,0 35.92,16.11 35.92,35.91c0,2.38 -0.23,4.73 -0.69,6.97c-2.04,10.5 -8.96,19.79 -18.52,24.81c-0.3,0.17 -0.61,0.33 -0.93,0.48c-4.92,2.42 -10.22,3.65 -15.77,3.65z" class="st0"/>
  </g>
 </g>
</svg>