<svg width="128" height="128" xmlns="http://www.w3.org/2000/svg">

 <g>
  <title>background</title>
  <rect fill="none" id="canvas_background" height="402" width="582" y="-1" x="-1"/>
 </g>
 <g>
  <title>Layer 1</title>
  <path fill="#ffffff" id="svg_2" d="m64,1c-16.5,0 -30,13.5 -30,30l0,26l-19,0l0,70l99,0l0,-70l-20,0l0,-26c0,-16.5 -13.5,-30 -30,-30zm-22,30c0,-12.1 9.9,-22 22,-22s22,9.9 22,22l0,26l-44,0l0,-26zm64,34l0,54l-83,0l0,-54l83,0z"/>
  <rect fill="#ffffff" id="svg_3" y="81" x="60" width="8" height="22"/>
 </g>
</svg>