<svg width="50" height="50" xmlns="http://www.w3.org/2000/svg">

 <g>
  <title>background</title>
  <rect fill="none" id="canvas_background" height="402" width="582" y="-1" x="-1"/>
 </g>
 <g>
  <title>Layer 1</title>
  <rect id="svg_1" width="50" height="50" fill="none"/>
  <circle id="svg_2" stroke-width="2" stroke-miterlimit="10" stroke-linecap="round" stroke="#ffffff" r="3" fill="none" cy="11" cx="39"/>
  <path fill="#ffffff" id="svg_5" d="m19.109,27.444c0.006,0.86 0.283,1.675 0.83,2.441l4.357,-4.357c-0.438,-0.723 -0.783,-1.38 -1.035,-1.972c-0.254,-0.594 -0.4,-1.146 -0.445,-1.662c-0.043,-0.515 0.039,-1.008 0.248,-1.479c0.208,-0.472 0.553,-0.949 1.035,-1.432c0.493,-0.493 1.033,-0.857 1.619,-1.093s1.181,-0.354 1.784,-0.354c0.603,0 1.197,0.117 1.784,0.354c0.586,0.235 1.131,0.573 1.636,1.011l1.085,-1.085l0.904,0.905l-1.102,1.102c0.778,0.997 1.156,2.032 1.135,3.106c-0.022,1.074 -0.406,2.204 -1.151,3.387l-1.397,-1.397c0.865,-1.305 0.888,-2.554 0.066,-3.748l-4.045,4.045l0.723,1.248c0.165,0.275 0.326,0.629 0.486,1.062c0.158,0.432 0.254,0.906 0.287,1.422c0.033,0.514 -0.035,1.049 -0.205,1.603s-0.508,1.082 -1.012,1.586c-0.537,0.537 -1.104,0.924 -1.702,1.159c-0.597,0.236 -1.206,0.346 -1.824,0.329c-0.62,-0.017 -1.236,-0.156 -1.851,-0.419c-0.613,-0.264 -1.205,-0.636 -1.775,-1.117l-1.348,1.348l-0.905,-0.904l1.348,-1.349c-0.986,-1.206 -1.477,-2.458 -1.471,-3.757c0.005,-1.299 0.54,-2.568 1.603,-3.807l1.397,1.397c-0.71,0.758 -1.064,1.567 -1.059,2.427zm2.746,4.029c0.346,0.17 0.697,0.266 1.061,0.287c0.361,0.022 0.723,-0.044 1.085,-0.197c0.361,-0.153 0.718,-0.405 1.069,-0.756c0.316,-0.318 0.528,-0.639 0.633,-0.963c0.104,-0.323 0.139,-0.654 0.106,-0.994c-0.033,-0.34 -0.13,-0.693 -0.288,-1.061s-0.343,-0.742 -0.551,-1.125l-4.126,4.126c0.328,0.284 0.666,0.513 1.011,0.683zm5.845,-12.028c-0.69,-0.044 -1.349,0.246 -1.973,0.871c-0.285,0.285 -0.482,0.576 -0.592,0.872c-0.11,0.295 -0.148,0.597 -0.116,0.903c0.033,0.308 0.115,0.625 0.247,0.954s0.296,0.669 0.493,1.019l3.848,-3.847c-0.582,-0.471 -1.216,-0.729 -1.907,-0.772z"/>
  <path id="svg_3" stroke-width="2" stroke-miterlimit="10" stroke-linecap="round" stroke="#ffffff" fill="none" d="m47,5.5c0,-1.381 -1.119,-2.5 -2.5,-2.5c-0.156,0 -14.876,0.002 -14.876,0.002c-1.33,0 -2.603,-0.07 -3.341,0.668l-22.729,22.728c-0.739,0.738 -0.739,1.936 0,2.674l17.374,17.374c0.738,0.738 1.936,0.738 2.674,0l22.728,-22.729c0.738,-0.737 0.668,-1.98 0.668,-3.34c0,0 0.002,-14.721 0.002,-14.877z"/>
 </g>
</svg>