<svg width="512" height="512" xmlns="http://www.w3.org/2000/svg">

 <g>
  <title>background</title>
  <rect fill="none" id="canvas_background" height="402" width="582" y="-1" x="-1"/>
 </g>
 <g>
  <title>Layer 1</title>
  <path fill="#ffffff" id="svg_2" d="m255.32,193.293c23.312,0 42.278,-18.977 42.278,-42.303c0,-23.313 -18.966,-42.277 -42.278,-42.277c-23.319,0 -42.291,18.965 -42.291,42.277c0,23.326 18.972,42.303 42.291,42.303z"/>
  <path fill="#ffffff" id="svg_3" d="m205.324,90.883c18.725,0 33.958,-15.24 33.958,-33.971c0,-18.719 -15.233,-33.947 -33.958,-33.947c-18.718,0 -33.946,15.229 -33.946,33.947c0,18.731 15.228,33.971 33.946,33.971z"/>
  <path fill="#ffffff" id="svg_4" d="m369.98,183.439c23.319,0 42.291,-18.967 42.291,-42.277c0,-23.326 -18.972,-42.305 -42.291,-42.305c-23.313,0 -42.278,18.979 -42.278,42.305c0,23.311 18.966,42.277 42.278,42.277z"/>
  <path fill="#ffffff" id="svg_5" d="m142.006,183.439c23.313,0 42.279,-18.967 42.279,-42.277c0,-23.326 -18.966,-42.305 -42.279,-42.305c-23.312,0 -42.278,18.979 -42.278,42.305c0.001,23.311 18.966,42.277 42.278,42.277z"/>
  <path fill="#ffffff" id="svg_6" d="m305.315,90.883c18.718,0 33.945,-15.24 33.945,-33.971c0,-18.719 -15.228,-33.947 -33.945,-33.947c-18.725,0 -33.958,15.229 -33.958,33.947c0,18.731 15.234,33.971 33.958,33.971z"/>
  <path fill="#ffffff" id="svg_7" d="m300.546,368.699c10.652,-0.938 16.937,-6.607 20.231,-18.219c0,-0.012 -0.003,-0.021 -0.003,-0.033l0,-87.857c-0.015,-0.055 -0.04,-0.104 -0.053,-0.158c-6.724,-30.115 -38.913,-44.127 -65.978,-44.4c-20.381,-0.176 -45.505,7.486 -58.404,28.512c-0.14,1.055 -0.694,1.992 -1.505,2.625c-2.084,3.879 -3.773,8.174 -4.97,12.92l0,87.906c0.105,0.215 0.198,0.439 0.265,0.68c3.245,11.672 9.439,17.426 19.951,18.471l0,-52.85l8,0l0,157.902l0,8l0,2.18l33.239,0l0,-107.51l8,0l0,107.51l33.226,0l0,-168.433l8,0l0,52.754l0.001,0z"/>
  <path fill="#ffffff" id="svg_8" d="m369.542,207.625c-21.528,1.764 -44.083,14.414 -45.944,38.697c-0.015,0.191 -0.059,0.371 -0.099,0.553c2.059,3.957 3.63,8.154 4.716,12.549c0.347,0.594 0.56,1.273 0.56,2.01l0,89.014c0,0.236 -0.03,0.465 -0.069,0.689c0.011,0.389 -0.016,0.783 -0.125,1.178c-4.261,15.389 -13.445,23.369 -28.034,24.404l0,97.805l65.435,0l0,-107.51l8,0l0,107.51l33.214,0l0,-168.085l8,0l0,52.854c10.534,-1.035 16.735,-6.787 19.976,-18.469c0.066,-0.242 0.16,-0.467 0.266,-0.684l0,-87.955c-8.533,-33.802 -39.176,-46.749 -65.896,-44.56z"/>
  <path fill="#ffffff" id="svg_9" d="m182.422,352.816c-0.049,-0.178 -0.068,-0.355 -0.092,-0.535c-0.287,-0.551 -0.465,-1.168 -0.465,-1.834l0,-89.014c0,-0.008 0.002,-0.014 0.002,-0.021c0,-0.002 0.001,-0.004 0.001,-0.006c0.003,-0.514 0.107,-1.002 0.287,-1.451c1.395,-5.461 3.434,-10.572 6.061,-15.279c-2.735,-23.207 -24.74,-35.328 -45.776,-37.051c-26.716,-2.191 -57.381,10.771 -65.888,44.605l0,87.91c0.105,0.215 0.199,0.439 0.266,0.68c3.246,11.674 9.444,17.428 19.963,18.471l0,-52.852l8,0l0,167.758l33.226,0l0,-107.183l8,0l0,107.184l64.075,0l0,-97.035c-14.356,-1.145 -23.422,-9.108 -27.66,-24.347z"/>
 </g>
</svg>